<svg width="83" height="62" viewBox="0 0 83 62" fill="none" xmlns="http://www.w3.org/2000/svg">
<rect x="0.5" y="0.5" width="82" height="61" rx="9.5" stroke="url(#paint0_linear_342_390)"/>
<path d="M32.4838 21.21C31.2338 21.21 30.2388 20.85 29.4988 20.13C28.7588 19.4 28.3888 18.34 28.3888 16.95V14.55C28.3888 13.16 28.7588 12.105 29.4988 11.385C30.2388 10.655 31.2338 10.29 32.4838 10.29C33.7238 10.29 34.6738 10.635 35.3338 11.325C36.0038 12.015 36.3388 12.96 36.3388 14.16V14.235H35.0938V14.115C35.0938 13.325 34.8788 12.68 34.4488 12.18C34.0288 11.67 33.3738 11.415 32.4838 11.415C31.5938 11.415 30.8988 11.69 30.3988 12.24C29.8988 12.78 29.6488 13.54 29.6488 14.52V16.98C29.6488 17.96 29.8988 18.725 30.3988 19.275C30.8988 19.815 31.5938 20.085 32.4838 20.085C33.3738 20.085 34.0288 19.835 34.4488 19.335C34.8788 18.825 35.0938 18.175 35.0938 17.385V17.145H36.3388V17.34C36.3388 18.54 36.0038 19.485 35.3338 20.175C34.6738 20.865 33.7238 21.21 32.4838 21.21ZM41.8078 21.21C41.0478 21.21 40.3678 21.075 39.7678 20.805C39.1678 20.535 38.6928 20.13 38.3428 19.59C38.0028 19.04 37.8328 18.355 37.8328 17.535V17.22H39.0778V17.535C39.0778 18.405 39.3328 19.055 39.8428 19.485C40.3528 19.905 41.0078 20.115 41.8078 20.115C42.6278 20.115 43.2528 19.93 43.6828 19.56C44.1128 19.19 44.3278 18.725 44.3278 18.165C44.3278 17.775 44.2278 17.465 44.0278 17.235C43.8378 17.005 43.5678 16.82 43.2178 16.68C42.8678 16.53 42.4578 16.4 41.9878 16.29L41.2078 16.095C40.5978 15.935 40.0578 15.74 39.5878 15.51C39.1178 15.28 38.7478 14.98 38.4778 14.61C38.2178 14.23 38.0878 13.745 38.0878 13.155C38.0878 12.565 38.2328 12.055 38.5228 11.625C38.8228 11.195 39.2378 10.865 39.7678 10.635C40.3078 10.405 40.9278 10.29 41.6278 10.29C42.3378 10.29 42.9728 10.415 43.5328 10.665C44.1028 10.905 44.5478 11.265 44.8678 11.745C45.1978 12.215 45.3628 12.81 45.3628 13.53V14.16H44.1178V13.53C44.1178 13.02 44.0078 12.61 43.7878 12.3C43.5778 11.99 43.2828 11.76 42.9028 11.61C42.5328 11.46 42.1078 11.385 41.6278 11.385C40.9378 11.385 40.3828 11.54 39.9628 11.85C39.5428 12.15 39.3328 12.58 39.3328 13.14C39.3328 13.51 39.4228 13.81 39.6028 14.04C39.7828 14.27 40.0378 14.46 40.3678 14.61C40.6978 14.75 41.0928 14.875 41.5528 14.985L42.3328 15.18C42.9428 15.31 43.4878 15.49 43.9678 15.72C44.4578 15.94 44.8478 16.245 45.1378 16.635C45.4278 17.015 45.5728 17.515 45.5728 18.135C45.5728 18.755 45.4178 19.295 45.1078 19.755C44.7978 20.215 44.3578 20.575 43.7878 20.835C43.2278 21.085 42.5678 21.21 41.8078 21.21ZM51.007 21.21C50.247 21.21 49.567 21.075 48.967 20.805C48.367 20.535 47.892 20.13 47.542 19.59C47.202 19.04 47.032 18.355 47.032 17.535V17.22H48.277V17.535C48.277 18.405 48.532 19.055 49.042 19.485C49.552 19.905 50.207 20.115 51.007 20.115C51.827 20.115 52.452 19.93 52.882 19.56C53.312 19.19 53.527 18.725 53.527 18.165C53.527 17.775 53.427 17.465 53.227 17.235C53.037 17.005 52.767 16.82 52.417 16.68C52.067 16.53 51.657 16.4 51.187 16.29L50.407 16.095C49.797 15.935 49.257 15.74 48.787 15.51C48.317 15.28 47.947 14.98 47.677 14.61C47.417 14.23 47.287 13.745 47.287 13.155C47.287 12.565 47.432 12.055 47.722 11.625C48.022 11.195 48.437 10.865 48.967 10.635C49.507 10.405 50.127 10.29 50.827 10.29C51.537 10.29 52.172 10.415 52.732 10.665C53.302 10.905 53.747 11.265 54.067 11.745C54.397 12.215 54.562 12.81 54.562 13.53V14.16H53.317V13.53C53.317 13.02 53.207 12.61 52.987 12.3C52.777 11.99 52.482 11.76 52.102 11.61C51.732 11.46 51.307 11.385 50.827 11.385C50.137 11.385 49.582 11.54 49.162 11.85C48.742 12.15 48.532 12.58 48.532 13.14C48.532 13.51 48.622 13.81 48.802 14.04C48.982 14.27 49.237 14.46 49.567 14.61C49.897 14.75 50.292 14.875 50.752 14.985L51.532 15.18C52.142 15.31 52.687 15.49 53.167 15.72C53.657 15.94 54.047 16.245 54.337 16.635C54.627 17.015 54.772 17.515 54.772 18.135C54.772 18.755 54.617 19.295 54.307 19.755C53.997 20.215 53.557 20.575 52.987 20.835C52.427 21.085 51.767 21.21 51.007 21.21Z" fill="white"/>
<path d="M33.5926 29.3655C33.4944 29.3655 33.4002 29.407 33.3307 29.481C33.2612 29.5549 33.2222 29.6552 33.2222 29.7597V44.8201C33.2222 44.962 33.2933 45.0913 33.4074 45.1623L40.6059 49.581C40.661 49.6149 40.7233 49.6332 40.7868 49.634C40.8504 49.6348 40.9131 49.6182 40.9689 49.5858L48.5852 45.1434C48.6436 45.1093 48.6924 45.0591 48.7263 44.9981C48.7602 44.937 48.778 44.8673 48.7778 44.7964V29.7597C48.7778 29.6552 48.7388 29.5549 48.6693 29.481C48.5998 29.407 48.5056 29.3655 48.4074 29.3655H33.5926ZM31 29.7597C31 28.2364 32.1615 27 33.5926 27H48.4074C49.8385 27 51 28.2364 51 29.7597V44.798C50.9998 45.2927 50.8747 45.7782 50.6378 46.2038C50.4009 46.6294 50.0609 46.9794 49.6533 47.2171L42.037 51.6611C41.6464 51.8887 41.2073 52.0053 40.762 51.9998C40.3168 51.9943 39.8803 51.8668 39.4948 51.6296L32.2978 47.2108C31.9033 46.9687 31.5756 46.6203 31.3478 46.2006C31.12 45.7809 31 45.3048 31 44.8201V29.7597ZM36.5556 33.7022C36.5556 33.3886 36.6726 33.0877 36.881 32.8659C37.0894 32.6441 37.372 32.5195 37.6667 32.5195H44.5037C44.7984 32.5195 45.081 32.6441 45.2894 32.8659C45.4978 33.0877 45.6148 33.3886 45.6148 33.7022V43.3156C45.6149 43.5352 45.5576 43.7505 45.4493 43.9374C45.341 44.1243 45.1859 44.2754 45.0015 44.3738L41.5822 46.1936C41.4281 46.2755 41.2582 46.3182 41.0859 46.3182C40.9137 46.3182 40.7438 46.2755 40.5896 46.1936L37.1704 44.3738C36.9859 44.2757 36.8307 44.125 36.7221 43.9384C36.6135 43.7518 36.5558 43.5367 36.5556 43.3172V42.4057C36.5556 42.092 36.6726 41.7912 36.881 41.5694C37.0894 41.3476 37.372 41.2229 37.6667 41.2229C37.9614 41.2229 38.244 41.3476 38.4523 41.5694C38.6607 41.7912 38.7778 42.092 38.7778 42.4057V42.5855L41.0859 43.8124L43.3926 42.5855V39.9503H39.5185C39.2238 39.9503 38.9412 39.8257 38.7328 39.6039C38.5245 39.3821 38.4074 39.0812 38.4074 38.7676C38.4074 38.4539 38.5245 38.153 38.7328 37.9312C38.9412 37.7094 39.2238 37.5848 39.5185 37.5848H43.3926V34.885H37.6667C37.372 34.885 37.0894 34.7604 36.881 34.5386C36.6726 34.3168 36.5556 34.0159 36.5556 33.7022Z" fill="white"/>
<defs>
<linearGradient id="paint0_linear_342_390" x1="83" y1="3.31142e-06" x2="1.58742e-06" y2="62" gradientUnits="userSpaceOnUse">
<stop stop-color="#33F222"/>
<stop offset="0.85" stop-color="#6E388E"/>
</linearGradient>
</defs>
</svg>
