<svg width="83" height="62" viewBox="0 0 83 62" fill="none" xmlns="http://www.w3.org/2000/svg">
<rect x="0.5" y="0.5" width="82" height="61" rx="9.5" stroke="url(#paint0_linear_342_396)"/>
<path d="M21.2327 21V10.5H27.5777V11.64H22.4927V15.165H27.1727V16.305H22.4927V21H21.2327ZM29.3783 21V13.665H30.5633V21H29.3783ZM29.9783 12.525C29.7183 12.525 29.4983 12.44 29.3183 12.27C29.1483 12.1 29.0633 11.885 29.0633 11.625C29.0633 11.355 29.1483 11.135 29.3183 10.965C29.4983 10.795 29.7183 10.71 29.9783 10.71C30.2383 10.71 30.4533 10.795 30.6233 10.965C30.7933 11.135 30.8783 11.355 30.8783 11.625C30.8783 11.885 30.7933 12.1 30.6233 12.27C30.4533 12.44 30.2383 12.525 29.9783 12.525ZM32.6951 17.37V17.16C32.6951 16.39 32.8501 15.73 33.1601 15.18C33.4701 14.63 33.8901 14.205 34.4201 13.905C34.9501 13.605 35.5301 13.455 36.1601 13.455C36.9301 13.455 37.5201 13.605 37.9301 13.905C38.3501 14.195 38.6601 14.52 38.8601 14.88H39.0701V13.665H40.1951V22.71C40.1951 23.11 40.0851 23.425 39.8651 23.655C39.6451 23.885 39.3251 24 38.9051 24H33.9251V22.95H38.5901C38.8901 22.95 39.0401 22.8 39.0401 22.5V19.71H38.8301C38.7101 19.93 38.5401 20.145 38.3201 20.355C38.1001 20.565 37.8151 20.74 37.4651 20.88C37.1151 21.01 36.6801 21.075 36.1601 21.075C35.5301 21.075 34.9501 20.925 34.4201 20.625C33.8901 20.325 33.4701 19.9 33.1601 19.35C32.8501 18.79 32.6951 18.13 32.6951 17.37ZM36.4751 20.025C37.2351 20.025 37.8501 19.785 38.3201 19.305C38.8001 18.825 39.0401 18.165 39.0401 17.325V17.205C39.0401 16.355 38.8001 15.695 38.3201 15.225C37.8501 14.745 37.2351 14.505 36.4751 14.505C35.7251 14.505 35.1051 14.745 34.6151 15.225C34.1351 15.695 33.8951 16.355 33.8951 17.205V17.325C33.8951 18.165 34.1351 18.825 34.6151 19.305C35.1051 19.785 35.7251 20.025 36.4751 20.025ZM42.6791 21V13.665H43.8341V14.58H44.0441C44.1841 14.32 44.4141 14.08 44.7341 13.86C45.0541 13.64 45.5041 13.53 46.0841 13.53C46.6541 13.53 47.1141 13.655 47.4641 13.905C47.8241 14.155 48.0841 14.46 48.2441 14.82H48.4541C48.6241 14.46 48.8791 14.155 49.2191 13.905C49.5691 13.655 50.0541 13.53 50.6741 13.53C51.1641 13.53 51.5941 13.63 51.9641 13.83C52.3341 14.03 52.6241 14.32 52.8341 14.7C53.0541 15.07 53.1641 15.515 53.1641 16.035V21H51.9791V16.14C51.9791 15.65 51.8341 15.265 51.5441 14.985C51.2641 14.695 50.8691 14.55 50.3591 14.55C49.8191 14.55 49.3741 14.725 49.0241 15.075C48.6841 15.425 48.5141 15.93 48.5141 16.59V21H47.3291V16.14C47.3291 15.65 47.1841 15.265 46.8941 14.985C46.6141 14.695 46.2191 14.55 45.7091 14.55C45.1691 14.55 44.7241 14.725 44.3741 15.075C44.0341 15.425 43.8641 15.93 43.8641 16.59V21H42.6791ZM57.8344 21.21C57.3244 21.21 56.8594 21.12 56.4394 20.94C56.0194 20.76 55.6894 20.5 55.4494 20.16C55.2094 19.82 55.0894 19.405 55.0894 18.915C55.0894 18.415 55.2094 18.005 55.4494 17.685C55.6894 17.355 56.0194 17.11 56.4394 16.95C56.8594 16.78 57.3294 16.695 57.8494 16.695H60.3244V16.155C60.3244 15.635 60.1694 15.225 59.8594 14.925C59.5594 14.625 59.1094 14.475 58.5094 14.475C57.9194 14.475 57.4594 14.62 57.1294 14.91C56.7994 15.19 56.5744 15.57 56.4544 16.05L55.3444 15.69C55.4644 15.28 55.6544 14.91 55.9144 14.58C56.1744 14.24 56.5194 13.97 56.9494 13.77C57.3894 13.56 57.9144 13.455 58.5244 13.455C59.4644 13.455 60.1944 13.7 60.7144 14.19C61.2344 14.67 61.4944 15.35 61.4944 16.23V19.545C61.4944 19.845 61.6344 19.995 61.9144 19.995H62.5894V21H61.5544C61.2244 21 60.9594 20.91 60.7594 20.73C60.5594 20.54 60.4594 20.29 60.4594 19.98V19.905H60.2794C60.1694 20.095 60.0194 20.295 59.8294 20.505C59.6494 20.705 59.3994 20.87 59.0794 21C58.7594 21.14 58.3444 21.21 57.8344 21.21ZM57.9694 20.19C58.6694 20.19 59.2344 19.985 59.6644 19.575C60.1044 19.155 60.3244 18.57 60.3244 17.82V17.655H57.8944C57.4244 17.655 57.0344 17.76 56.7244 17.97C56.4244 18.17 56.2744 18.475 56.2744 18.885C56.2744 19.295 56.4294 19.615 56.7394 19.845C57.0594 20.075 57.4694 20.19 57.9694 20.19Z" fill="white"/>
<path opacity="0.5" d="M42.1663 29H38.5834C37.633 29 36.7216 29.3951 36.0496 30.0984C35.3775 30.8017 35 31.7556 35 32.7502C35 33.7448 35.3775 34.6986 36.0496 35.4019C36.7216 36.1052 37.633 36.5003 38.5834 36.5003H42.1663V29Z" stroke="white" stroke-width="1.5"/>
<path d="M42.1662 36.5003H38.5833C37.6331 36.5003 36.7218 36.8954 36.0498 37.5986C35.3779 38.3018 35.0004 39.2555 35.0004 40.2499C35.0004 41.2444 35.3779 42.1981 36.0498 42.9013C36.7218 43.6045 37.6331 43.9995 38.5833 43.9995H42.1662V36.5003Z" stroke="white" stroke-width="1.5"/>
<path opacity="0.5" d="M49.333 40.25C49.333 41.2446 48.9555 42.1984 48.2835 42.9017C47.6114 43.605 46.7 44.0001 45.7496 44.0001C44.7992 44.0001 43.8878 43.605 43.2157 42.9017C42.5437 42.1984 42.1662 41.2446 42.1662 40.25C42.1662 39.2553 42.5437 38.3015 43.2157 37.5982C43.8878 36.8949 44.7992 36.4998 45.7496 36.4998C46.7 36.4998 47.6114 36.8949 48.2835 37.5982C48.9555 38.3015 49.333 39.2553 49.333 40.25ZM38.5833 44.0007H42.1662V47.7503C42.166 48.4918 41.9557 49.2167 41.5618 49.8331C41.168 50.4496 40.6084 50.93 39.9537 51.2137C39.299 51.4973 38.5786 51.5714 37.8837 51.4266C37.1887 51.2818 36.5504 50.9246 36.0494 50.4001C35.5485 49.8757 35.2074 49.2076 35.0692 48.4803C34.931 47.7529 35.0021 46.9991 35.2733 46.314C35.5445 45.6289 36.0037 45.0434 36.5929 44.6314C37.1821 44.2194 37.8747 44.0007 38.5833 44.0007Z" stroke="white" stroke-width="1.5"/>
<path d="M42.1663 29H45.7492C46.6995 29 47.611 29.3951 48.283 30.0984C48.955 30.8017 49.3326 31.7556 49.3326 32.7502C49.3326 33.7448 48.955 34.6986 48.283 35.4019C47.611 36.1052 46.6995 36.5003 45.7492 36.5003H42.1663V29Z" stroke="white" stroke-width="1.5"/>
<defs>
<linearGradient id="paint0_linear_342_396" x1="83" y1="-3.31142e-06" x2="-1.17306e-06" y2="62" gradientUnits="userSpaceOnUse">
<stop stop-color="#33F222"/>
<stop offset="0.85" stop-color="#6E388E"/>
</linearGradient>
</defs>
</svg>
