<svg width="83" height="62" viewBox="0 0 83 62" fill="none" xmlns="http://www.w3.org/2000/svg">
<rect x="0.5" y="0.5" width="82" height="61" rx="9.5" stroke="url(#paint0_linear_342_384)"/>
<path d="M22.7854 21V10.5H24.0454V15.165H28.9654V10.5H30.2254V21H28.9654V16.305H24.0454V21H22.7854ZM35.2092 21V11.64H31.8342V10.5H39.8442V11.64H36.4692V21H35.2092ZM41.4476 21V10.5H43.8476L46.6376 20.205H46.8326L49.6226 10.5H52.0226V21H50.8076V11.325H50.5976L47.8226 21H45.6476L42.8726 11.325H42.6626V21H41.4476ZM54.4261 21V10.5H55.6861V19.86H60.9961V21H54.4261Z" fill="white"/>
<path d="M33.5926 29.3655C33.4944 29.3655 33.4002 29.407 33.3307 29.481C33.2612 29.5549 33.2222 29.6552 33.2222 29.7598V44.8201C33.2222 44.962 33.2933 45.0914 33.4074 45.1623L40.6059 49.5811C40.661 49.615 40.7233 49.6332 40.7868 49.634C40.8504 49.6348 40.9131 49.6182 40.9689 49.5858L48.5852 45.1434C48.6436 45.1094 48.6924 45.0592 48.7263 44.9981C48.7602 44.937 48.778 44.8674 48.7778 44.7965V29.7598C48.7778 29.6552 48.7388 29.5549 48.6693 29.481C48.5998 29.407 48.5056 29.3655 48.4074 29.3655H33.5926ZM31 29.7598C31 28.2364 32.1615 27 33.5926 27H48.4074C49.8385 27 51 28.2364 51 29.7598V44.798C50.9998 45.2927 50.8747 45.7783 50.6378 46.2039C50.4009 46.6294 50.0609 46.9794 49.6533 47.2171L42.037 51.6596C41.6467 51.8876 41.2077 52.0048 40.7624 51.9998C40.3172 51.9949 39.8806 51.8679 39.4948 51.6312L32.2978 47.2108C31.9033 46.9688 31.5756 46.6204 31.3478 46.2007C31.12 45.781 31 45.3048 31 44.8201V29.7598ZM36.5556 33.7023C36.5556 33.3886 36.6726 33.0877 36.881 32.8659C37.0894 32.6441 37.372 32.5195 37.6667 32.5195H44.5037C44.7984 32.5195 45.081 32.6441 45.2894 32.8659C45.4978 33.0877 45.6148 33.3886 45.6148 33.7023C45.6148 34.0159 45.4978 34.3168 45.2894 34.5386C45.081 34.7604 44.7984 34.885 44.5037 34.885H38.7778V37.5848H44.5037C44.7984 37.5848 45.081 37.7094 45.2894 37.9312C45.4978 38.1531 45.6148 38.4539 45.6148 38.7676V43.3156C45.6149 43.5353 45.5576 43.7506 45.4493 43.9374C45.341 44.1243 45.1859 44.2754 45.0015 44.3738L41.5822 46.1937C41.4281 46.2756 41.2582 46.3182 41.0859 46.3182C40.9137 46.3182 40.7438 46.2756 40.5896 46.1937L37.1704 44.3738C36.9859 44.2758 36.8307 44.125 36.7221 43.9384C36.6135 43.7518 36.5558 43.5367 36.5556 43.3172V42.4057C36.5556 42.092 36.6726 41.7912 36.881 41.5694C37.0894 41.3476 37.372 41.223 37.6667 41.223C37.9614 41.223 38.244 41.3476 38.4523 41.5694C38.6607 41.7912 38.7778 42.092 38.7778 42.4057V42.5855L41.0859 43.814L43.3926 42.5839V39.9503H37.6667C37.372 39.9503 37.0894 39.8257 36.881 39.6039C36.6726 39.3821 36.5556 39.0813 36.5556 38.7676V33.7023Z" fill="white"/>
<defs>
<linearGradient id="paint0_linear_342_384" x1="83" y1="3.31142e-06" x2="1.58742e-06" y2="62" gradientUnits="userSpaceOnUse">
<stop stop-color="#33F222"/>
<stop offset="0.85" stop-color="#6E388E"/>
</linearGradient>
</defs>
</svg>
