<svg width="83" height="62" viewBox="0 0 83 62" fill="none" xmlns="http://www.w3.org/2000/svg">
<rect x="0.5" y="0.5" width="82" height="61" rx="9.5" stroke="url(#paint0_linear_342_429)"/>
<path d="M28.841 21.21C27.811 21.21 26.996 20.92 26.396 20.34C25.806 19.76 25.511 18.93 25.511 17.85V17.04H26.756V17.85C26.756 18.5 26.926 19.03 27.266 19.44C27.616 19.85 28.136 20.055 28.826 20.055C29.526 20.055 30.021 19.855 30.311 19.455C30.601 19.045 30.746 18.51 30.746 17.85V11.64H28.901V10.5H33.146V11.64H32.006V17.85C32.006 18.94 31.736 19.775 31.196 20.355C30.656 20.925 29.871 21.21 28.841 21.21ZM36.9017 21.21C36.3917 21.21 35.9267 21.12 35.5067 20.94C35.0867 20.76 34.7567 20.5 34.5167 20.16C34.2767 19.82 34.1567 19.405 34.1567 18.915C34.1567 18.415 34.2767 18.005 34.5167 17.685C34.7567 17.355 35.0867 17.11 35.5067 16.95C35.9267 16.78 36.3967 16.695 36.9167 16.695H39.3917V16.155C39.3917 15.635 39.2367 15.225 38.9267 14.925C38.6267 14.625 38.1767 14.475 37.5767 14.475C36.9867 14.475 36.5267 14.62 36.1967 14.91C35.8667 15.19 35.6417 15.57 35.5217 16.05L34.4117 15.69C34.5317 15.28 34.7217 14.91 34.9817 14.58C35.2417 14.24 35.5867 13.97 36.0167 13.77C36.4567 13.56 36.9817 13.455 37.5917 13.455C38.5317 13.455 39.2617 13.7 39.7817 14.19C40.3017 14.67 40.5617 15.35 40.5617 16.23V19.545C40.5617 19.845 40.7017 19.995 40.9817 19.995H41.6567V21H40.6217C40.2917 21 40.0267 20.91 39.8267 20.73C39.6267 20.54 39.5267 20.29 39.5267 19.98V19.905H39.3467C39.2367 20.095 39.0867 20.295 38.8967 20.505C38.7167 20.705 38.4667 20.87 38.1467 21C37.8267 21.14 37.4117 21.21 36.9017 21.21ZM37.0367 20.19C37.7367 20.19 38.3017 19.985 38.7317 19.575C39.1717 19.155 39.3917 18.57 39.3917 17.82V17.655H36.9617C36.4917 17.655 36.1017 17.76 35.7917 17.97C35.4917 18.17 35.3417 18.475 35.3417 18.885C35.3417 19.295 35.4967 19.615 35.8067 19.845C36.1267 20.075 36.5367 20.19 37.0367 20.19ZM44.7295 21L42.1045 13.665H43.3645L45.5695 20.115H45.7795L47.9845 13.665H49.2445L46.6195 21H44.7295ZM52.9711 21.21C52.4611 21.21 51.9961 21.12 51.5761 20.94C51.1561 20.76 50.8261 20.5 50.5861 20.16C50.3461 19.82 50.2261 19.405 50.2261 18.915C50.2261 18.415 50.3461 18.005 50.5861 17.685C50.8261 17.355 51.1561 17.11 51.5761 16.95C51.9961 16.78 52.4661 16.695 52.9861 16.695H55.4611V16.155C55.4611 15.635 55.3061 15.225 54.9961 14.925C54.6961 14.625 54.2461 14.475 53.6461 14.475C53.0561 14.475 52.5961 14.62 52.2661 14.91C51.9361 15.19 51.7111 15.57 51.5911 16.05L50.4811 15.69C50.6011 15.28 50.7911 14.91 51.0511 14.58C51.3111 14.24 51.6561 13.97 52.0861 13.77C52.5261 13.56 53.0511 13.455 53.6611 13.455C54.6011 13.455 55.3311 13.7 55.8511 14.19C56.3711 14.67 56.6311 15.35 56.6311 16.23V19.545C56.6311 19.845 56.7711 19.995 57.0511 19.995H57.7261V21H56.6911C56.3611 21 56.0961 20.91 55.8961 20.73C55.6961 20.54 55.5961 20.29 55.5961 19.98V19.905H55.4161C55.3061 20.095 55.1561 20.295 54.9661 20.505C54.7861 20.705 54.5361 20.87 54.2161 21C53.8961 21.14 53.4811 21.21 52.9711 21.21ZM53.1061 20.19C53.8061 20.19 54.3711 19.985 54.8011 19.575C55.2411 19.155 55.4611 18.57 55.4611 17.82V17.655H53.0311C52.5611 17.655 52.1711 17.76 51.8611 17.97C51.5611 18.17 51.4111 18.475 51.4111 18.885C51.4111 19.295 51.5661 19.615 51.8761 19.845C52.1961 20.075 52.6061 20.19 53.1061 20.19Z" fill="white"/>
<path d="M46.6107 32.9623L46.6738 32.9971C45.8189 33.4333 43.376 34.8399 43.376 36.6302C43.376 37.2343 43.7336 37.8166 44.0685 38.3639C44.364 38.8459 44.6426 39.2995 44.6426 39.7138C44.6426 40.7573 43.5903 41.5674 42.996 41.9403L42.8832 41.8771C43.1076 41.6121 43.3839 41.1684 43.3839 40.6951C43.3839 40.0431 43.0377 39.5219 42.6869 38.9931C42.3238 38.4468 41.9561 37.8918 41.9561 37.1722C41.9561 34.673 45.4693 33.3319 46.6107 32.9623ZM41.9922 34.2838C43.4054 33.0626 44.9494 31.728 44.9494 29.7206C44.9494 28.8123 44.5648 28.2322 44.3742 28L44.3121 28.0338C44.3572 28.2148 44.4249 28.5485 44.4249 28.9846C44.4249 30.8121 42.8211 32.0921 41.2693 33.333C39.8132 34.4975 38.4023 35.6249 38.4023 37.134C38.4023 39.2984 40.6106 40.6297 41.5433 41.1923L41.6144 41.236L41.6708 41.2032C41.6183 41.1471 41.565 41.0919 41.5106 41.0375C40.7933 40.2993 39.7038 39.1795 39.7038 37.4666C39.7038 36.2639 40.8012 35.3142 41.9922 34.2838ZM41.4835 45.0871C43.473 45.0871 44.8648 44.8113 45.4828 44.6423L46.4212 45.1656C45.5268 45.6051 43.5441 45.9398 41.479 45.9398C39.0508 45.9398 36.3959 45.436 36.388 44.7644C36.3824 44.3937 37.2508 44.1472 38.1869 43.988L38.2433 44.0197C38.2433 44.0197 37.9264 44.1298 37.9298 44.3828C37.9343 44.7644 39.5313 45.0871 41.4824 45.0871M37.5023 47.4543C37.5023 47.0105 38.4486 46.8001 38.8816 46.7161L38.938 46.7488C38.8636 46.8023 38.823 46.8753 38.823 46.9375C38.823 47.2286 39.8719 47.4947 41.4802 47.4947C42.9215 47.4947 43.7223 47.3235 44.1982 47.2133L45.3148 47.8381C45.264 47.873 44.1644 48.5414 41.4779 48.5414C39.5256 48.5414 37.5023 48.0704 37.5023 47.4543ZM47.1216 45.5702C48.4524 44.8363 49.7844 43.9684 49.8599 42.5749C49.9095 41.6601 49.04 40.9895 48.0892 41.1684L48.14 41.0462V41.0441C48.3791 40.9743 48.6746 40.9176 49.005 40.9176C50.0686 40.9176 50.884 41.5336 50.9878 42.3961C51.1975 44.1254 48.6622 45.2507 47.2422 45.6378L47.1216 45.5702ZM49.349 48.8282C49.3603 50.0167 45.1783 50.7232 41.4407 50.7549C38.214 50.7821 33.0113 50.1933 33 49.0048C32.9932 48.1838 35.2557 47.6157 36.485 47.4521L36.6147 47.523C36.6147 47.523 34.782 47.9341 34.7876 48.681C34.7944 49.4257 38.6504 50.0701 41.435 50.0472C45.749 50.0101 48.6689 49.3308 49.0141 48.4095L49.075 48.3757C49.2013 48.4651 49.3456 48.6123 49.349 48.8282ZM36.2256 51.2488C37.8214 51.4954 39.4356 51.6139 41.0516 51.6032C48.0531 51.5443 50.0291 49.8804 50.3336 49.5184L50.3866 49.5489C50.3144 50.8661 46.6118 51.9608 42.0452 51.999C39.7207 52.0186 37.6049 51.7591 36.0846 51.3284L36.2256 51.2488ZM39.1602 41.1269C37.9433 41.2174 35.3301 41.5914 35.3301 42.2565C35.3301 42.7603 37.7256 43.4701 41.479 43.4701C44.8557 43.4701 46.9873 42.8541 47.4847 42.6196L46.7595 42.2107C46.2407 42.347 44.3133 42.7625 41.479 42.7625C39.8098 42.7625 36.9339 42.4648 36.9339 42.0101C36.9339 41.6023 38.7283 41.2883 39.2437 41.1978L39.2764 41.1923L39.1602 41.1269Z" fill="white"/>
<defs>
<linearGradient id="paint0_linear_342_429" x1="83" y1="0" x2="6.84124e-06" y2="57.5" gradientUnits="userSpaceOnUse">
<stop offset="0.306247" stop-color="#FF002E"/>
<stop offset="0.67848" stop-color="#09DFB9"/>
</linearGradient>
</defs>
</svg>
