<svg width="83" height="62" viewBox="0 0 83 62" fill="none" xmlns="http://www.w3.org/2000/svg">
<rect x="0.5" y="0.5" width="82" height="61" rx="9.5" stroke="url(#paint0_linear_342_421)"/>
<path d="M7.64471 21.21C6.61471 21.21 5.79971 20.92 5.19971 20.34C4.60971 19.76 4.31471 18.93 4.31471 17.85V17.04H5.55971V17.85C5.55971 18.5 5.72971 19.03 6.06971 19.44C6.41971 19.85 6.93971 20.055 7.62971 20.055C8.32971 20.055 8.82471 19.855 9.11471 19.455C9.40471 19.045 9.54971 18.51 9.54971 17.85V11.64H7.70471V10.5H11.9497V11.64H10.8097V17.85C10.8097 18.94 10.5397 19.775 9.99971 20.355C9.45971 20.925 8.67471 21.21 7.64471 21.21ZM15.7054 21.21C15.1954 21.21 14.7304 21.12 14.3104 20.94C13.8904 20.76 13.5604 20.5 13.3204 20.16C13.0804 19.82 12.9604 19.405 12.9604 18.915C12.9604 18.415 13.0804 18.005 13.3204 17.685C13.5604 17.355 13.8904 17.11 14.3104 16.95C14.7304 16.78 15.2004 16.695 15.7204 16.695H18.1954V16.155C18.1954 15.635 18.0404 15.225 17.7304 14.925C17.4304 14.625 16.9804 14.475 16.3804 14.475C15.7904 14.475 15.3304 14.62 15.0004 14.91C14.6704 15.19 14.4454 15.57 14.3254 16.05L13.2154 15.69C13.3354 15.28 13.5254 14.91 13.7854 14.58C14.0454 14.24 14.3904 13.97 14.8204 13.77C15.2604 13.56 15.7854 13.455 16.3954 13.455C17.3354 13.455 18.0654 13.7 18.5854 14.19C19.1054 14.67 19.3654 15.35 19.3654 16.23V19.545C19.3654 19.845 19.5054 19.995 19.7854 19.995H20.4604V21H19.4254C19.0954 21 18.8304 20.91 18.6304 20.73C18.4304 20.54 18.3304 20.29 18.3304 19.98V19.905H18.1504C18.0404 20.095 17.8904 20.295 17.7004 20.505C17.5204 20.705 17.2704 20.87 16.9504 21C16.6304 21.14 16.2154 21.21 15.7054 21.21ZM15.8404 20.19C16.5404 20.19 17.1054 19.985 17.5354 19.575C17.9754 19.155 18.1954 18.57 18.1954 17.82V17.655H15.7654C15.2954 17.655 14.9054 17.76 14.5954 17.97C14.2954 18.17 14.1454 18.475 14.1454 18.885C14.1454 19.295 14.3004 19.615 14.6104 19.845C14.9304 20.075 15.3404 20.19 15.8404 20.19ZM23.5332 21L20.9082 13.665H22.1682L24.3732 20.115H24.5832L26.7882 13.665H28.0482L25.4232 21H23.5332ZM31.7748 21.21C31.2648 21.21 30.7998 21.12 30.3798 20.94C29.9598 20.76 29.6298 20.5 29.3898 20.16C29.1498 19.82 29.0298 19.405 29.0298 18.915C29.0298 18.415 29.1498 18.005 29.3898 17.685C29.6298 17.355 29.9598 17.11 30.3798 16.95C30.7998 16.78 31.2698 16.695 31.7898 16.695H34.2648V16.155C34.2648 15.635 34.1098 15.225 33.7998 14.925C33.4998 14.625 33.0498 14.475 32.4498 14.475C31.8598 14.475 31.3998 14.62 31.0698 14.91C30.7398 15.19 30.5148 15.57 30.3948 16.05L29.2848 15.69C29.4048 15.28 29.5948 14.91 29.8548 14.58C30.1148 14.24 30.4598 13.97 30.8898 13.77C31.3298 13.56 31.8548 13.455 32.4648 13.455C33.4048 13.455 34.1348 13.7 34.6548 14.19C35.1748 14.67 35.4348 15.35 35.4348 16.23V19.545C35.4348 19.845 35.5748 19.995 35.8548 19.995H36.5298V21H35.4948C35.1648 21 34.8998 20.91 34.6998 20.73C34.4998 20.54 34.3998 20.29 34.3998 19.98V19.905H34.2198C34.1098 20.095 33.9598 20.295 33.7698 20.505C33.5898 20.705 33.3398 20.87 33.0198 21C32.6998 21.14 32.2848 21.21 31.7748 21.21ZM31.9098 20.19C32.6098 20.19 33.1748 19.985 33.6048 19.575C34.0448 19.155 34.2648 18.57 34.2648 17.82V17.655H31.8348C31.3648 17.655 30.9748 17.76 30.6648 17.97C30.3648 18.17 30.2148 18.475 30.2148 18.885C30.2148 19.295 30.3698 19.615 30.6798 19.845C30.9998 20.075 31.4098 20.19 31.9098 20.19ZM41.0491 21.21C40.1391 21.21 39.3691 21 38.7391 20.58C38.1191 20.16 37.7441 19.495 37.6141 18.585L38.7391 18.33C38.8191 18.81 38.9691 19.19 39.1891 19.47C39.4091 19.74 39.6791 19.935 39.9991 20.055C40.3291 20.165 40.6791 20.22 41.0491 20.22C41.5991 20.22 42.0341 20.11 42.3541 19.89C42.6741 19.67 42.8341 19.375 42.8341 19.005C42.8341 18.625 42.6791 18.36 42.3691 18.21C42.0691 18.05 41.6541 17.92 41.1241 17.82L40.5091 17.715C40.0391 17.635 39.6091 17.51 39.2191 17.34C38.8291 17.17 38.5191 16.94 38.2891 16.65C38.0591 16.36 37.9441 15.995 37.9441 15.555C37.9441 14.895 38.1991 14.38 38.7091 14.01C39.2191 13.64 39.8941 13.455 40.7341 13.455C41.5641 13.455 42.2341 13.645 42.7441 14.025C43.2641 14.395 43.5991 14.92 43.7491 15.6L42.6391 15.885C42.5491 15.355 42.3341 14.985 41.9941 14.775C41.6541 14.555 41.2341 14.445 40.7341 14.445C40.2341 14.445 39.8391 14.54 39.5491 14.73C39.2591 14.91 39.1141 15.18 39.1141 15.54C39.1141 15.89 39.2491 16.15 39.5191 16.32C39.7991 16.48 40.1691 16.6 40.6291 16.68L41.2441 16.785C41.7641 16.875 42.2291 17 42.6391 17.16C43.0591 17.31 43.3891 17.53 43.6291 17.82C43.8791 18.11 44.0041 18.49 44.0041 18.96C44.0041 19.68 43.7341 20.235 43.1941 20.625C42.6641 21.015 41.9491 21.21 41.0491 21.21ZM49.3793 21.21C48.6693 21.21 48.0293 21.06 47.4593 20.76C46.8993 20.45 46.4543 20.01 46.1243 19.44C45.8043 18.87 45.6443 18.195 45.6443 17.415V17.25C45.6443 16.46 45.8043 15.785 46.1243 15.225C46.4543 14.655 46.8993 14.22 47.4593 13.92C48.0293 13.61 48.6693 13.455 49.3793 13.455C50.0793 13.455 50.6743 13.585 51.1643 13.845C51.6643 14.105 52.0543 14.45 52.3343 14.88C52.6243 15.31 52.8093 15.77 52.8893 16.26L51.7343 16.5C51.6843 16.14 51.5643 15.81 51.3743 15.51C51.1943 15.21 50.9393 14.97 50.6093 14.79C50.2793 14.61 49.8743 14.52 49.3943 14.52C48.9043 14.52 48.4643 14.63 48.0743 14.85C47.6943 15.07 47.3893 15.385 47.1593 15.795C46.9393 16.205 46.8293 16.695 46.8293 17.265V17.4C46.8293 17.97 46.9393 18.46 47.1593 18.87C47.3893 19.28 47.6943 19.595 48.0743 19.815C48.4643 20.035 48.9043 20.145 49.3943 20.145C50.1243 20.145 50.6793 19.955 51.0593 19.575C51.4493 19.195 51.6893 18.725 51.7793 18.165L52.9493 18.42C52.8393 18.9 52.6393 19.355 52.3493 19.785C52.0593 20.215 51.6643 20.56 51.1643 20.82C50.6743 21.08 50.0793 21.21 49.3793 21.21ZM54.9691 21V13.665H56.1241V14.565H56.3341C56.4641 14.245 56.6641 14.01 56.9341 13.86C57.2041 13.71 57.5591 13.635 57.9991 13.635H58.8691V14.715H57.9241C57.3941 14.715 56.9641 14.865 56.6341 15.165C56.3141 15.455 56.1541 15.91 56.1541 16.53V21H54.9691ZM60.6234 21V13.665H61.8084V21H60.6234ZM61.2234 12.525C60.9634 12.525 60.7434 12.44 60.5634 12.27C60.3934 12.1 60.3084 11.885 60.3084 11.625C60.3084 11.355 60.3934 11.135 60.5634 10.965C60.7434 10.795 60.9634 10.71 61.2234 10.71C61.4834 10.71 61.6984 10.795 61.8684 10.965C62.0384 11.135 62.1234 11.355 62.1234 11.625C62.1234 11.885 62.0384 12.1 61.8684 12.27C61.6984 12.44 61.4834 12.525 61.2234 12.525ZM64.3002 24V13.665H65.4552V14.88H65.6652C65.8552 14.51 66.1602 14.18 66.5802 13.89C67.0102 13.6 67.6052 13.455 68.3652 13.455C68.9952 13.455 69.5702 13.61 70.0902 13.92C70.6202 14.22 71.0402 14.65 71.3502 15.21C71.6702 15.77 71.8302 16.445 71.8302 17.235V17.43C71.8302 18.21 71.6752 18.885 71.3652 19.455C71.0552 20.025 70.6352 20.46 70.1052 20.76C69.5852 21.06 69.0052 21.21 68.3652 21.21C67.8552 21.21 67.4202 21.14 67.0602 21C66.7102 20.87 66.4252 20.7 66.2052 20.49C65.9852 20.28 65.8152 20.065 65.6952 19.845H65.4852V24H64.3002ZM68.0502 20.16C68.8102 20.16 69.4252 19.92 69.8952 19.44C70.3752 18.95 70.6152 18.27 70.6152 17.4V17.265C70.6152 16.395 70.3752 15.72 69.8952 15.24C69.4252 14.75 68.8102 14.505 68.0502 14.505C67.3002 14.505 66.6802 14.75 66.1902 15.24C65.7102 15.72 65.4702 16.395 65.4702 17.265V17.4C65.4702 18.27 65.7102 18.95 66.1902 19.44C66.6802 19.92 67.3002 20.16 68.0502 20.16ZM76.3459 21C75.9259 21 75.6009 20.885 75.3709 20.655C75.1509 20.425 75.0409 20.11 75.0409 19.71V14.7H72.8359V13.665H75.0409V11.055H76.2259V13.665H78.6259V14.7H76.2259V19.53C76.2259 19.83 76.3709 19.98 76.6609 19.98H78.2959V21H76.3459Z" fill="white"/>
<path d="M33.1364 46C32.2652 46 31.525 45.6844 30.9158 45.0532C30.3067 44.4219 30.0014 43.6542 30 42.75V40.5833H33.1364V42.75H36.2727V33H39.4091V42.75C39.4091 43.6528 39.1045 44.4205 38.4954 45.0532C37.8862 45.6858 37.1453 46.0014 36.2727 46H33.1364ZM44.6364 46C44.0439 46 43.5477 45.792 43.1476 45.376C42.7476 44.96 42.5468 44.4458 42.5455 43.8333V41.6667H45.6818V42.75H49.8636V40.5833H44.6364C44.0439 40.5833 43.5477 40.3753 43.1476 39.9593C42.7476 39.5433 42.5468 39.0291 42.5455 38.4167V35.1667C42.5455 34.5528 42.7462 34.0386 43.1476 33.624C43.5491 33.2094 44.0453 33.0014 44.6364 33H50.9091C51.5015 33 51.9984 33.208 52.3999 33.624C52.8014 34.04 53.0014 34.5542 53 35.1667V37.3333H49.8636V36.25H45.6818V38.4167H50.9091C51.5015 38.4167 51.9984 38.6247 52.3999 39.0407C52.8014 39.4567 53.0014 39.9709 53 40.5833V43.8333C53 44.4472 52.7993 44.9622 52.3978 45.3782C51.9964 45.7942 51.5001 46.0014 50.9091 46H44.6364Z" fill="white"/>
<defs>
<linearGradient id="paint0_linear_342_421" x1="83" y1="0" x2="6.84124e-06" y2="57.5" gradientUnits="userSpaceOnUse">
<stop offset="0.306247" stop-color="#FF002E"/>
<stop offset="0.67848" stop-color="#09DFB9"/>
</linearGradient>
</defs>
</svg>
