<svg width="83" height="62" viewBox="0 0 83 62" fill="none" xmlns="http://www.w3.org/2000/svg">
<rect x="0.5" y="0.5" width="82" height="61" rx="9.5" stroke="url(#paint0_linear_342_416)"/>
<path d="M13.7913 21V10.5H15.0513V15.075H15.2613L19.7013 10.5H21.3813L16.2663 15.69L21.5613 21H19.8363L15.2613 16.335H15.0513V21H13.7913ZM22.1216 21L25.3616 10.5H27.5816L30.8216 21H29.5166L28.7066 18.345H24.2366L23.4266 21H22.1216ZM24.5516 17.205H28.3766L26.5766 11.265H26.3666L24.5516 17.205ZM32.3948 21V10.5H34.8398L38.4998 20.205H38.6948V10.5H39.9398V21H37.4948L33.8498 11.28H33.6398V21H32.3948ZM41.8608 21V19.875H43.3308V11.625H41.8608V10.5H47.1258C47.7358 10.5 48.2758 10.61 48.7458 10.83C49.2258 11.05 49.5958 11.36 49.8558 11.76C50.1258 12.15 50.2608 12.61 50.2608 13.14V13.26C50.2608 13.75 50.1658 14.155 49.9758 14.475C49.7858 14.785 49.5608 15.03 49.3008 15.21C49.0408 15.38 48.7858 15.505 48.5358 15.585V15.795C48.7858 15.855 49.0458 15.975 49.3158 16.155C49.5858 16.325 49.8108 16.57 49.9908 16.89C50.1808 17.21 50.2758 17.615 50.2758 18.105V18.255C50.2758 18.825 50.1358 19.32 49.8558 19.74C49.5858 20.15 49.2108 20.465 48.7308 20.685C48.2608 20.895 47.7208 21 47.1108 21H41.8608ZM44.5908 19.86H46.9758C47.6358 19.86 48.1408 19.705 48.4908 19.395C48.8408 19.085 49.0158 18.665 49.0158 18.135V18C49.0158 17.47 48.8408 17.05 48.4908 16.74C48.1408 16.43 47.6358 16.275 46.9758 16.275H44.5908V19.86ZM44.5908 15.135H47.0208C47.6208 15.135 48.1008 14.985 48.4608 14.685C48.8208 14.375 49.0008 13.97 49.0008 13.47V13.32C49.0008 12.81 48.8208 12.405 48.4608 12.105C48.1108 11.795 47.6308 11.64 47.0208 11.64H44.5908V15.135ZM51.3745 21L54.6145 10.5H56.8345L60.0745 21H58.7695L57.9595 18.345H53.4895L52.6795 21H51.3745ZM53.8045 17.205H57.6295L55.8295 11.265H55.6195L53.8045 17.205ZM61.6478 21V10.5H64.0928L67.7528 20.205H67.9478V10.5H69.1928V21H66.7478L63.1028 11.28H62.8928V21H61.6478Z" fill="white"/>
<path d="M51.3125 31.0938H30.6875C30.5632 31.0938 30.444 31.1431 30.356 31.231C30.2681 31.319 30.2188 31.4382 30.2188 31.5625V49.375C30.2188 49.748 30.3669 50.1056 30.6306 50.3694C30.8944 50.6331 31.252 50.7812 31.625 50.7812H36.3125C36.6855 50.7812 37.0431 50.6331 37.3069 50.3694C37.5706 50.1056 37.7188 49.748 37.7188 49.375V43.2812H44.2812V45.625C44.2812 45.998 44.4294 46.3556 44.6931 46.6194C44.9569 46.8831 45.3145 47.0312 45.6875 47.0312H50.375C50.748 47.0312 51.1056 46.8831 51.3694 46.6194C51.6331 46.3556 51.7812 45.998 51.7812 45.625V31.5625C51.7812 31.4382 51.7319 31.319 51.644 31.231C51.556 31.1431 51.4368 31.0938 51.3125 31.0938ZM36.7812 49.375C36.7812 49.4993 36.7319 49.6185 36.644 49.7065C36.556 49.7944 36.4368 49.8438 36.3125 49.8438H31.625C31.5007 49.8438 31.3815 49.7944 31.2935 49.7065C31.2056 49.6185 31.1562 49.4993 31.1562 49.375V39.5312H36.7812V49.375ZM36.7812 38.5938H31.1562V32.0312H36.7812V38.5938ZM44.2812 42.3438H37.7188V32.0312H44.2812V42.3438ZM50.8438 45.625C50.8438 45.7493 50.7944 45.8685 50.7065 45.9565C50.6185 46.0444 50.4993 46.0938 50.375 46.0938H45.6875C45.5632 46.0938 45.444 46.0444 45.356 45.9565C45.2681 45.8685 45.2188 45.7493 45.2188 45.625V39.5312H50.8438V45.625ZM50.8438 38.5938H45.2188V32.0312H50.8438V38.5938Z" fill="white"/>
<defs>
<linearGradient id="paint0_linear_342_416" x1="83" y1="-3.31142e-06" x2="-2.61381e-06" y2="57.5" gradientUnits="userSpaceOnUse">
<stop stop-color="#6C54FF"/>
<stop offset="1" stop-color="#841919"/>
</linearGradient>
</defs>
</svg>
