<svg width="83" height="62" viewBox="0 0 83 62" fill="none" xmlns="http://www.w3.org/2000/svg">
<rect x="0.5" y="0.5" width="82" height="61" rx="9.5" stroke="url(#paint0_linear_342_425)"/>
<path d="M28.7693 21V10.5H32.7893C33.4193 10.5 33.9793 10.625 34.4693 10.875C34.9693 11.115 35.3643 11.46 35.6543 11.91C35.9443 12.36 36.0893 12.905 36.0893 13.545V13.74C36.0893 14.37 35.9393 14.915 35.6393 15.375C35.3493 15.825 34.9543 16.17 34.4543 16.41C33.9543 16.65 33.3993 16.77 32.7893 16.77H30.0293V21H28.7693ZM30.0293 15.63H32.6543C33.3243 15.63 33.8543 15.465 34.2443 15.135C34.6343 14.795 34.8293 14.32 34.8293 13.71V13.56C34.8293 12.95 34.6343 12.48 34.2443 12.15C33.8643 11.81 33.3343 11.64 32.6543 11.64H30.0293V15.63ZM37.7781 21V10.5H39.0381V15.165H43.9581V10.5H45.2181V21H43.9581V16.305H39.0381V21H37.7781ZM47.6219 21V10.5H51.6419C52.2719 10.5 52.8319 10.625 53.3219 10.875C53.8219 11.115 54.2169 11.46 54.5069 11.91C54.7969 12.36 54.9419 12.905 54.9419 13.545V13.74C54.9419 14.37 54.7919 14.915 54.4919 15.375C54.2019 15.825 53.8069 16.17 53.3069 16.41C52.8069 16.65 52.2519 16.77 51.6419 16.77H48.8819V21H47.6219ZM48.8819 15.63H51.5069C52.1769 15.63 52.7069 15.465 53.0969 15.135C53.4869 14.795 53.6819 14.32 53.6819 13.71V13.56C53.6819 12.95 53.4869 12.48 53.0969 12.15C52.7169 11.81 52.1869 11.64 51.5069 11.64H48.8819V15.63Z" fill="white"/>
<path d="M41 31.123C49.0344 31.123 55.2125 35.3535 55.2125 40C55.2125 44.6465 49.0297 48.877 41 48.877C32.9656 48.877 26.7875 44.6465 26.7875 40C26.7875 35.3535 32.9703 31.123 41 31.123ZM41 30.1387C32.7172 30.1387 26 34.5508 26 40C26 45.4492 32.7172 49.8613 41 49.8613C49.2828 49.8613 56 45.4492 56 40C56 34.5508 49.2828 30.1387 41 30.1387ZM36.2281 39.209C35.8578 41.582 34.55 41.3359 32.9422 41.3359L33.5844 37.1992C35.3656 37.1992 36.575 36.959 36.2281 39.209ZM30.5656 45.5254H32.2859L32.6938 42.9004C34.6203 42.9004 35.8156 43.0762 36.9219 41.7812C38.1453 40.375 38.4641 37.873 37.5922 36.6191C37.1375 35.9629 36.4063 35.6406 35.4125 35.6406H32.0984L30.5656 45.5254ZM39.2703 33.0098H40.9813L40.5734 35.6348C42.05 35.6348 43.4188 35.5 44.0797 36.2617C44.7734 37.0586 44.4406 38.0781 43.6906 42.8887H41.9562C42.6781 38.2363 42.8141 37.8496 42.5516 37.498C42.2984 37.1582 41.7219 37.2285 40.3297 37.2285L39.4484 42.8887H37.7375L39.2703 33.0098ZM49.6719 39.209C49.2969 41.6172 47.9516 41.3359 46.3859 41.3359L47.0281 37.1992C48.8188 37.1992 50.0188 36.959 49.6719 39.209ZM44.0094 45.5254H45.7344L46.1422 42.9004C48.1672 42.9004 49.2875 43.0469 50.3703 41.7812C51.5938 40.375 51.9125 37.873 51.0406 36.6191C50.5859 35.9629 49.8547 35.6406 48.8609 35.6406H45.5469L44.0094 45.5254Z" fill="white"/>
<defs>
<linearGradient id="paint0_linear_342_425" x1="83" y1="0" x2="6.84124e-06" y2="57.5" gradientUnits="userSpaceOnUse">
<stop offset="0.306247" stop-color="#FF002E"/>
<stop offset="0.67848" stop-color="#09DFB9"/>
</linearGradient>
</defs>
</svg>
