<svg width="83" height="62" viewBox="0 0 83 62" fill="none" xmlns="http://www.w3.org/2000/svg">
<rect x="0.5" y="0.5" width="82" height="61" rx="9.5" stroke="url(#paint0_linear_342_356)"/>
<path d="M13.8353 21V10.5H18.0803C18.7303 10.5 19.3003 10.615 19.7903 10.845C20.2903 11.065 20.6803 11.385 20.9603 11.805C21.2403 12.215 21.3803 12.71 21.3803 13.29V13.455C21.3803 14.145 21.2153 14.69 20.8853 15.09C20.5553 15.49 20.1653 15.76 19.7153 15.9V16.11C20.0753 16.12 20.3703 16.24 20.6003 16.47C20.8403 16.69 20.9603 17.025 20.9603 17.475V21H19.7153V17.625C19.7153 17.325 19.6303 17.095 19.4603 16.935C19.3003 16.775 19.0553 16.695 18.7253 16.695H15.0953V21H13.8353ZM15.0953 15.555H17.9603C18.6503 15.555 19.1803 15.39 19.5503 15.06C19.9303 14.72 20.1203 14.25 20.1203 13.65V13.545C20.1203 12.945 19.9353 12.48 19.5653 12.15C19.1953 11.81 18.6603 11.64 17.9603 11.64H15.0953V15.555ZM26.7031 21.21C25.9631 21.21 25.3131 21.055 24.7531 20.745C24.1931 20.425 23.7581 19.98 23.4481 19.41C23.1381 18.84 22.9831 18.18 22.9831 17.43V17.25C22.9831 16.49 23.1381 15.825 23.4481 15.255C23.7581 14.685 24.1881 14.245 24.7381 13.935C25.2881 13.615 25.9181 13.455 26.6281 13.455C27.3181 13.455 27.9281 13.605 28.4581 13.905C28.9881 14.195 29.4031 14.615 29.7031 15.165C30.0031 15.715 30.1531 16.36 30.1531 17.1V17.64H24.1681C24.1981 18.43 24.4531 19.05 24.9331 19.5C25.4131 19.94 26.0131 20.16 26.7331 20.16C27.3631 20.16 27.8481 20.015 28.1881 19.725C28.5281 19.435 28.7881 19.09 28.9681 18.69L29.9881 19.185C29.8381 19.495 29.6281 19.805 29.3581 20.115C29.0981 20.425 28.7531 20.685 28.3231 20.895C27.9031 21.105 27.3631 21.21 26.7031 21.21ZM24.1831 16.665H28.9531C28.9131 15.985 28.6781 15.455 28.2481 15.075C27.8281 14.695 27.2881 14.505 26.6281 14.505C25.9581 14.505 25.4081 14.695 24.9781 15.075C24.5481 15.455 24.2831 15.985 24.1831 16.665ZM34.4701 21.21C33.9601 21.21 33.4951 21.12 33.0751 20.94C32.6551 20.76 32.3251 20.5 32.0851 20.16C31.8451 19.82 31.7251 19.405 31.7251 18.915C31.7251 18.415 31.8451 18.005 32.0851 17.685C32.3251 17.355 32.6551 17.11 33.0751 16.95C33.4951 16.78 33.9651 16.695 34.4851 16.695H36.9601V16.155C36.9601 15.635 36.8051 15.225 36.4951 14.925C36.1951 14.625 35.7451 14.475 35.1451 14.475C34.5551 14.475 34.0951 14.62 33.7651 14.91C33.4351 15.19 33.2101 15.57 33.0901 16.05L31.9801 15.69C32.1001 15.28 32.2901 14.91 32.5501 14.58C32.8101 14.24 33.1551 13.97 33.5851 13.77C34.0251 13.56 34.5501 13.455 35.1601 13.455C36.1001 13.455 36.8301 13.7 37.3501 14.19C37.8701 14.67 38.1301 15.35 38.1301 16.23V19.545C38.1301 19.845 38.2701 19.995 38.5501 19.995H39.2251V21H38.1901C37.8601 21 37.5951 20.91 37.3951 20.73C37.1951 20.54 37.0951 20.29 37.0951 19.98V19.905H36.9151C36.8051 20.095 36.6551 20.295 36.4651 20.505C36.2851 20.705 36.0351 20.87 35.7151 21C35.3951 21.14 34.9801 21.21 34.4701 21.21ZM34.6051 20.19C35.3051 20.19 35.8701 19.985 36.3001 19.575C36.7401 19.155 36.9601 18.57 36.9601 17.82V17.655H34.5301C34.0601 17.655 33.6701 17.76 33.3601 17.97C33.0601 18.17 32.9101 18.475 32.9101 18.885C32.9101 19.295 33.0651 19.615 33.3751 19.845C33.6951 20.075 34.1051 20.19 34.6051 20.19ZM44.0179 21.21C43.3079 21.21 42.6679 21.06 42.0979 20.76C41.5379 20.45 41.0929 20.01 40.7629 19.44C40.4429 18.87 40.2829 18.195 40.2829 17.415V17.25C40.2829 16.46 40.4429 15.785 40.7629 15.225C41.0929 14.655 41.5379 14.22 42.0979 13.92C42.6679 13.61 43.3079 13.455 44.0179 13.455C44.7179 13.455 45.3129 13.585 45.8029 13.845C46.3029 14.105 46.6929 14.45 46.9729 14.88C47.2629 15.31 47.4479 15.77 47.528 16.26L46.3729 16.5C46.3229 16.14 46.2029 15.81 46.0129 15.51C45.8329 15.21 45.5779 14.97 45.2479 14.79C44.9179 14.61 44.5129 14.52 44.0329 14.52C43.5429 14.52 43.1029 14.63 42.7129 14.85C42.3329 15.07 42.0279 15.385 41.7979 15.795C41.5779 16.205 41.4679 16.695 41.4679 17.265V17.4C41.4679 17.97 41.5779 18.46 41.7979 18.87C42.0279 19.28 42.3329 19.595 42.7129 19.815C43.1029 20.035 43.5429 20.145 44.0329 20.145C44.7629 20.145 45.3179 19.955 45.6979 19.575C46.0879 19.195 46.3279 18.725 46.4179 18.165L47.5879 18.42C47.4779 18.9 47.2779 19.355 46.9879 19.785C46.6979 20.215 46.3029 20.56 45.8029 20.82C45.3129 21.08 44.7179 21.21 44.0179 21.21ZM52.0002 21C51.5802 21 51.2552 20.885 51.0252 20.655C50.8052 20.425 50.6952 20.11 50.6952 19.71V14.7H48.4902V13.665H50.6952V11.055H51.8802V13.665H54.2802V14.7H51.8802V19.53C51.8802 19.83 52.0252 19.98 52.3152 19.98H53.9502V21H52.0002ZM56.8446 21.21C56.5546 21.21 56.3096 21.115 56.1096 20.925C55.9196 20.735 55.8246 20.49 55.8246 20.19C55.8246 19.89 55.9196 19.645 56.1096 19.455C56.3096 19.265 56.5546 19.17 56.8446 19.17C57.1446 19.17 57.3896 19.265 57.5796 19.455C57.7696 19.645 57.8646 19.89 57.8646 20.19C57.8646 20.49 57.7696 20.735 57.5796 20.925C57.3896 21.115 57.1446 21.21 56.8446 21.21ZM58.5535 24V22.95H59.5735C59.8735 22.95 60.0235 22.8 60.0235 22.5V13.665H61.2085V22.71C61.2085 23.11 61.0935 23.425 60.8635 23.655C60.6435 23.885 60.3235 24 59.9035 24H58.5535ZM60.6235 12.525C60.3635 12.525 60.1435 12.44 59.9635 12.27C59.7935 12.1 59.7085 11.885 59.7085 11.625C59.7085 11.355 59.7935 11.135 59.9635 10.965C60.1435 10.795 60.3635 10.71 60.6235 10.71C60.8835 10.71 61.0985 10.795 61.2685 10.965C61.4385 11.135 61.5235 11.355 61.5235 11.625C61.5235 11.885 61.4385 12.1 61.2685 12.27C61.0985 12.44 60.8835 12.525 60.6235 12.525ZM66.6546 21.21C65.7446 21.21 64.9746 21 64.3446 20.58C63.7246 20.16 63.3496 19.495 63.2196 18.585L64.3446 18.33C64.4246 18.81 64.5746 19.19 64.7946 19.47C65.0146 19.74 65.2846 19.935 65.6046 20.055C65.9346 20.165 66.2846 20.22 66.6546 20.22C67.2046 20.22 67.6396 20.11 67.9596 19.89C68.2796 19.67 68.4396 19.375 68.4396 19.005C68.4396 18.625 68.2846 18.36 67.9746 18.21C67.6746 18.05 67.2596 17.92 66.7296 17.82L66.1146 17.715C65.6446 17.635 65.2146 17.51 64.8246 17.34C64.4346 17.17 64.1246 16.94 63.8946 16.65C63.6646 16.36 63.5496 15.995 63.5496 15.555C63.5496 14.895 63.8046 14.38 64.3146 14.01C64.8246 13.64 65.4996 13.455 66.3396 13.455C67.1696 13.455 67.8396 13.645 68.3496 14.025C68.8696 14.395 69.2046 14.92 69.3546 15.6L68.2446 15.885C68.1546 15.355 67.9396 14.985 67.5996 14.775C67.2596 14.555 66.8396 14.445 66.3396 14.445C65.8396 14.445 65.4446 14.54 65.1546 14.73C64.8646 14.91 64.7196 15.18 64.7196 15.54C64.7196 15.89 64.8546 16.15 65.1246 16.32C65.4046 16.48 65.7746 16.6 66.2346 16.68L66.8496 16.785C67.3696 16.875 67.8346 17 68.2446 17.16C68.6646 17.31 68.9946 17.53 69.2346 17.82C69.4846 18.11 69.6096 18.49 69.6096 18.96C69.6096 19.68 69.3396 20.235 68.7996 20.625C68.2696 21.015 67.5546 21.21 66.6546 21.21Z" fill="white"/>
<path d="M39.8788 38.0475C39.4964 38.2683 39.1881 38.5975 38.9928 38.9935C38.7976 39.3895 38.7241 39.8345 38.7817 40.2722C38.8393 40.71 39.0255 41.1208 39.3166 41.4528C39.6077 41.7847 39.9907 42.0229 40.4171 42.1372C40.8436 42.2515 41.2944 42.2368 41.7125 42.0949C42.1306 41.9531 42.4972 41.6904 42.7661 41.3402C43.0349 40.9899 43.1939 40.5678 43.2228 40.1273C43.2518 39.6867 43.1494 39.2474 42.9288 38.865C42.7822 38.611 42.587 38.3884 42.3544 38.2099C42.1218 38.0313 41.8563 37.9004 41.5731 37.8245C41.2899 37.7485 40.9945 37.7292 40.7037 37.7674C40.413 37.8057 40.1327 37.9009 39.8788 38.0475ZM49.885 40.47C49.7383 40.3025 49.5838 40.1346 49.4213 39.9663C49.5346 39.8463 49.6446 39.7267 49.7513 39.6075C51.7575 37.3525 52.605 35.09 51.82 33.7313C51.0675 32.4275 48.8288 32.0388 46.025 32.5838C45.7492 32.6379 45.4746 32.6988 45.2013 32.7663C45.1488 32.5863 45.0933 32.4071 45.035 32.2288C44.0838 29.3625 42.5475 27.4988 40.9775 27.5C39.4725 27.5 38.0175 29.2463 37.0888 31.9475C36.9971 32.2142 36.9125 32.4825 36.835 32.7525C36.6525 32.7075 36.4692 32.6658 36.285 32.6275C33.3275 32.0213 30.9463 32.4213 30.1625 33.7825C29.4113 35.0863 30.1963 37.22 32.0725 39.3725C32.2592 39.585 32.4508 39.7933 32.6475 39.9975C32.415 40.235 32.1963 40.4738 31.9913 40.7113C30.16 42.8338 29.42 44.9313 30.17 46.23C30.945 47.5725 33.2925 48.0113 36.1513 47.4488C36.3829 47.4029 36.6133 47.3513 36.8425 47.2938C36.9258 47.5863 37.0179 47.8767 37.1188 48.165C38.0438 50.8112 39.49 52.5 40.99 52.5C42.54 52.5 44.0925 50.6837 45.0338 47.9262C45.1088 47.7087 45.1775 47.4825 45.245 47.25C45.5408 47.3233 45.8388 47.3883 46.1388 47.445C48.8925 47.9663 51.0788 47.5575 51.8275 46.2575C52.6013 44.9138 51.8025 42.6613 49.885 40.47ZM31.0875 34.315C31.57 33.4775 33.5163 33.15 36.07 33.675C36.2333 33.7083 36.3996 33.7458 36.5688 33.7875C36.3191 34.8904 36.1429 36.0087 36.0413 37.135C35.1203 37.7826 34.2422 38.4891 33.4125 39.25C33.23 39.0608 33.0521 38.8671 32.8788 38.6688C31.27 36.8263 30.635 35.1013 31.0875 34.315ZM35.9463 41.475C35.3088 40.9913 34.715 40.4963 34.1763 39.9988C34.7138 39.5038 35.3075 39.0113 35.945 38.5288C35.9217 39.0196 35.9104 39.5108 35.9113 40.0025C35.9113 40.4942 35.9229 40.985 35.9463 41.475ZM35.9463 46.4C34.8628 46.6413 33.7441 46.6811 32.6463 46.5175C32.3453 46.494 32.0523 46.4089 31.7855 46.2677C31.5187 46.1264 31.2837 45.9319 31.095 45.6963C30.6388 44.9088 31.2338 43.2238 32.8 41.4088C32.9967 41.1813 33.2 40.9596 33.41 40.7438C34.2401 41.5094 35.12 42.2193 36.0438 42.8688C36.1464 44.0092 36.3243 45.1417 36.5763 46.2588C36.3679 46.3113 36.1575 46.3588 35.945 46.4013M44.82 36.3525C44.4008 36.0883 43.9767 35.8329 43.5475 35.5863C43.1242 35.3429 42.6963 35.1083 42.2638 34.8825C42.9748 34.5822 43.7003 34.3173 44.4375 34.0888C44.603 34.8364 44.7306 35.592 44.82 36.3525ZM38.1 32.2938C38.895 29.9813 40.0725 28.5688 40.98 28.5688C41.9463 28.5675 43.2013 30.0913 44.0225 32.565C44.0758 32.7267 44.1258 32.8892 44.1725 33.0525C43.0944 33.3866 42.0396 33.7917 41.015 34.265C39.9938 33.7859 38.9414 33.3762 37.865 33.0388C37.9375 32.7888 38.0158 32.5404 38.1 32.2938ZM37.6 34.0738C38.3339 34.3047 39.0556 34.5726 39.7625 34.8763C38.8858 35.3279 38.0325 35.82 37.2025 36.3525C37.3025 35.555 37.4363 34.7913 37.6 34.0738ZM37.2038 43.6488C37.6179 43.9146 38.0383 44.17 38.465 44.415C38.9 44.665 39.3404 44.905 39.7863 45.135C39.0743 45.4492 38.3467 45.7266 37.6063 45.9663C37.4342 45.2012 37.2999 44.4282 37.2038 43.65M44.0238 47.5825C43.6912 48.6413 43.1666 49.6298 42.4763 50.4988C42.3058 50.7478 42.0861 50.9593 41.8307 51.1202C41.5752 51.281 41.2896 51.3877 40.9913 51.4337C40.08 51.4337 38.9188 50.0775 38.1288 47.8137C38.0354 47.5462 37.9496 47.2763 37.8713 47.0038C38.9527 46.6549 40.0093 46.2331 41.0338 45.7413C42.0671 46.2184 43.1306 46.6272 44.2175 46.965C44.1575 47.1725 44.0929 47.3783 44.0238 47.5825ZM44.4763 45.9275C43.7294 45.6943 42.9944 45.4248 42.2738 45.12C42.6979 44.8975 43.125 44.6621 43.555 44.4138C43.9967 44.1588 44.4267 43.8975 44.845 43.63C44.7615 44.4016 44.6384 45.1685 44.4763 45.9275ZM45.035 39.9988C45.035 40.7579 45.0113 41.5163 44.9638 42.2738C44.3475 42.6913 43.6975 43.0988 43.0213 43.4888C42.3463 43.8775 41.68 44.235 41.025 44.5588C40.3358 44.2288 39.66 43.8729 38.9975 43.4913C38.3392 43.1121 37.6958 42.7083 37.0675 42.28C37.0092 41.5217 36.98 40.7625 36.98 40.0025C36.98 39.2433 37.0083 38.4846 37.065 37.7263C38.3216 36.8683 39.6412 36.1066 41.0125 35.4475C41.6925 35.7783 42.3604 36.1329 43.0163 36.5113C43.6746 36.8896 44.3204 37.2892 44.9538 37.71C45.0079 38.4717 45.035 39.2346 45.035 39.9988ZM46.23 33.6325C48.6325 33.1663 50.4425 33.48 50.8963 34.2663C51.38 35.1038 50.6875 36.9513 48.9538 38.8988C48.8579 39.0063 48.7588 39.1142 48.6563 39.2225C47.8118 38.4592 46.9164 37.7542 45.9763 37.1125C45.8816 35.9987 45.7124 34.8925 45.47 33.8013C45.7283 33.7379 45.9817 33.6817 46.23 33.6325ZM46.0675 38.4888C46.7019 38.9518 47.3119 39.4475 47.895 39.9738C47.3146 40.5085 46.7067 41.0125 46.0738 41.4838C46.0929 40.9888 46.1025 40.4938 46.1025 39.9988C46.1025 39.4954 46.0908 38.9921 46.0675 38.4888ZM50.9038 45.725C50.4488 46.5138 48.6938 46.8425 46.3375 46.3975C46.0675 46.3467 45.7908 46.2858 45.5075 46.215C45.7441 45.1097 45.9057 43.9896 45.9913 42.8625C46.9298 42.21 47.8223 41.4937 48.6625 40.7188C48.81 40.8713 48.95 41.0229 49.0825 41.1738C49.8338 41.9907 50.4283 42.939 50.8363 43.9713C50.9668 44.2434 51.0402 44.5395 51.0518 44.8411C51.0634 45.1428 51.013 45.4436 50.9038 45.725Z" fill="white"/>
<defs>
<linearGradient id="paint0_linear_342_356" x1="83" y1="0" x2="6.84124e-06" y2="57.5" gradientUnits="userSpaceOnUse">
<stop offset="0.306247" stop-color="#FF002E" stop-opacity="0.44"/>
<stop offset="0.67848" stop-color="#09DFB9"/>
</linearGradient>
</defs>
</svg>
